<?xml version="1.0" standalone="no"?>
<!DOCTYPE svg PUBLIC "-//W3C//DTD SVG 20010904//EN"
 "http://www.w3.org/TR/2001/REC-SVG-20010904/DTD/svg10.dtd">
<svg version="1.0" xmlns="http://www.w3.org/2000/svg"
 width="582.000000pt" height="582.000000pt" viewBox="0 0 582.000000 582.000000"
 preserveAspectRatio="xMidYMid meet">
<metadata>
Created by potrace 1.14, written by Peter Selinger 2001-2017
</metadata>
<g transform="translate(0.000000,582.000000) scale(0.100000,-0.100000)"
fill="#000000" stroke="none">
<path d="M361 5807 c-80 -28 -101 -120 -57 -251 59 -174 171 -373 394 -700
224 -329 515 -713 840 -1109 85 -104 152 -190 150 -192 -14 -13 -218 -108
-278 -129 -87 -32 -307 -82 -400 -92 -36 -4 -69 -9 -75 -12 -5 -3 35 -14 88
-23 273 -48 489 -144 717 -317 156 -119 400 -376 384 -404 -4 -7 -35 -49 -69
-93 -226 -293 -549 -744 -738 -1030 -429 -650 -554 -1002 -378 -1065 112 -39
312 73 647 365 175 152 539 516 803 803 113 122 207 222 210 222 8 0 63 -141
115 -298 119 -355 213 -836 246 -1262 18 -236 21 -235 46 9 53 524 129 907
255 1285 28 82 53 155 57 161 4 8 81 -66 212 -203 372 -390 840 -818 1050
-957 116 -78 178 -105 250 -112 46 -4 59 -2 82 16 34 27 52 89 42 145 -42 251
-384 813 -992 1629 l-214 288 73 97 c94 123 299 329 409 411 234 173 475 274
748 312 45 7 82 15 82 18 0 4 -42 12 -93 19 -231 29 -509 127 -734 259 l-42
24 222 277 c451 562 689 891 917 1272 231 383 275 567 153 625 -76 36 -174 3
-358 -120 -273 -182 -566 -443 -1133 -1011 l-433 -434 -63 98 c-245 373 -416
873 -468 1370 -7 61 -15 112 -18 112 -4 0 -12 -51 -19 -112 -61 -551 -193
-949 -435 -1312 -78 -116 -170 -238 -185 -244 -4 -1 -100 96 -214 217 -364
384 -877 877 -1152 1106 -323 269 -533 380 -644 342z m5059 -145 c0 -24 -37
-128 -75 -208 -149 -319 -499 -852 -992 -1511 -112 -150 -207 -275 -212 -277
-23 -15 -344 265 -432 376 l-30 37 173 188 c336 366 863 888 1125 1112 209
179 443 329 443 283z m-4900 -40 c277 -157 907 -757 1628 -1548 l92 -101 -93
-89 c-50 -49 -119 -110 -152 -135 -62 -48 -229 -159 -238 -159 -8 0 -394 516
-557 745 -172 241 -398 580 -510 765 -128 212 -260 487 -260 541 0 25 22 20
90 -19z m2554 -682 c62 -237 192 -531 319 -724 l65 -100 -36 -41 c-20 -23
-118 -131 -217 -241 -99 -109 -202 -225 -230 -257 l-50 -57 -222 247 -221 247
44 57 c217 282 427 807 470 1174 l7 59 23 -134 c13 -74 34 -178 48 -230z m578
-1055 c130 -139 322 -287 498 -382 138 -75 342 -147 488 -173 l72 -13 -88 -23
c-302 -76 -630 -299 -877 -594 l-71 -86 -46 66 c-25 36 -101 130 -168 210 -67
80 -146 174 -175 210 -29 36 -92 108 -139 160 -47 52 -86 99 -86 104 0 4 26
38 58 75 377 432 456 521 460 521 2 0 35 -34 74 -75z m-1121 -247 c106 -123
201 -233 212 -245 l19 -22 -109 -133 c-60 -73 -181 -223 -269 -333 l-160 -201
-99 104 c-247 260 -545 438 -825 495 l-65 13 60 7 c316 39 708 233 973 482 31
30 60 54 64 55 4 0 94 -100 199 -222z m555 -649 c268 -289 296 -321 387 -431
l88 -107 -45 -74 c-61 -101 -169 -318 -221 -446 -136 -332 -235 -728 -290
-1164 -12 -100 -23 -161 -24 -135 -2 82 -40 357 -72 513 -95 477 -265 926
-479 1268 -35 55 -58 102 -54 109 28 45 533 638 544 638 4 0 78 -77 166 -171z
m-753 -686 c80 -128 144 -245 194 -352 l44 -95 -203 -204 c-209 -209 -463
-450 -648 -612 -139 -122 -419 -347 -498 -399 -63 -42 -203 -114 -209 -107 -6
6 36 125 64 180 111 221 446 725 721 1086 151 197 465 590 473 590 4 0 32 -39
62 -87z m1465 -150 c598 -764 1003 -1387 1045 -1610 8 -41 -7 -43 -81 -8 -214
100 -600 424 -1139 958 l-271 269 15 37 c65 155 265 531 284 531 4 0 70 -80
147 -177z"/>
</g>
</svg>
